<svg xmlns="http://www.w3.org/2000/svg" version="1.1" xmlns:xlink="http://www.w3.org/1999/xlink" xmlns:svgjs="http://svgjs.com/svgjs" width="512" height="512" x="0" y="0" viewBox="0 0 682.667 682.667" style="enable-background:new 0 0 512 512" xml:space="preserve" class=""><g><defs><clipPath id="a" clipPathUnits="userSpaceOnUse"><path d="M0 512h512V0H0Z" fill="#333333" data-original="#000000" opacity="1"></path></clipPath></defs><g clip-path="url(#a)" transform="matrix(1.33333 0 0 -1.33333 0 682.667)"><path d="M0 0c-54.615 0-98.89-44.274-98.89-98.89 0-25.333 9.532-48.437 25.197-65.934v-131.457c0-7.875 6.384-14.26 14.26-14.26H43.694" style="stroke-width:15;stroke-linecap:round;stroke-linejoin:round;stroke-miterlimit:10;stroke-dasharray:none;stroke-opacity:1" transform="translate(110.912 318.041)" fill="none" stroke="#333333" stroke-width="15" stroke-linecap="round" stroke-linejoin="round" stroke-miterlimit="10" stroke-dasharray="none" stroke-opacity="" data-original="#000000" opacity="1"></path><path d="M0 0c12.824 16.677 20.452 37.557 20.452 60.22 0 54.615-44.274 98.889-98.89 98.889h-35.139" style="stroke-width:15;stroke-linecap:round;stroke-linejoin:round;stroke-miterlimit:10;stroke-dasharray:none;stroke-opacity:1" transform="translate(258.577 158.932)" fill="none" stroke="#333333" stroke-width="15" stroke-linecap="round" stroke-linejoin="round" stroke-miterlimit="10" stroke-dasharray="none" stroke-opacity="" data-original="#000000" opacity="1"></path><path d="M0 0v27.392c14.75 12.445 24.128 31.055 24.128 51.865v3.172c0 37.468-30.375 67.843-67.844 67.843h-71.405c-37.469 0-67.844-30.375-67.844-67.843v-3.172c0-20.81 9.378-39.42 24.127-51.865V-85.91c0-7.668 6.217-13.884 13.885-13.884h38.262" style="stroke-width:15;stroke-linecap:round;stroke-linejoin:round;stroke-miterlimit:10;stroke-dasharray:none;stroke-opacity:1" transform="translate(224.944 136.804)" fill="none" stroke="#333333" stroke-width="15" stroke-linecap="round" stroke-linejoin="round" stroke-miterlimit="10" stroke-dasharray="none" stroke-opacity="" data-original="#000000" opacity="1"></path><path d="m0 0 44.162 164.818c11.791 44.005 57.024 70.119 101.028 58.328 44.005-11.791 70.12-57.022 58.329-101.027l-62.615-233.678" style="stroke-width:15;stroke-linecap:round;stroke-linejoin:round;stroke-miterlimit:10;stroke-dasharray:none;stroke-opacity:1" transform="translate(259.23 278.522)" fill="none" stroke="#333333" stroke-width="15" stroke-linecap="round" stroke-linejoin="round" stroke-miterlimit="10" stroke-dasharray="none" stroke-opacity="" data-original="#000000" opacity="1"></path><path d="m0 0-68.301 18.301 11.494 42.897 68.301-18.302c11.846-3.173 18.875-15.349 15.701-27.195C24.021 3.855 11.846-3.174 0 0Z" style="stroke-width:15;stroke-linecap:round;stroke-linejoin:round;stroke-miterlimit:10;stroke-dasharray:none;stroke-opacity:1" transform="translate(354.094 359.357)" fill="none" stroke="#333333" stroke-width="15" stroke-linecap="round" stroke-linejoin="round" stroke-miterlimit="10" stroke-dasharray="none" stroke-opacity="" data-original="#000000" opacity="1"></path><path d="m0 0-68.301 18.301 11.494 42.896 68.301-18.301c11.846-3.173 18.875-15.349 15.701-27.195C24.021 3.855 11.846-3.175 0 0Z" style="stroke-width:15;stroke-linecap:round;stroke-linejoin:round;stroke-miterlimit:10;stroke-dasharray:none;stroke-opacity:1" transform="translate(332.022 276.988)" fill="none" stroke="#333333" stroke-width="15" stroke-linecap="round" stroke-linejoin="round" stroke-miterlimit="10" stroke-dasharray="none" stroke-opacity="" data-original="#000000" opacity="1"></path><path d="m0 0 47.402-12.702c11.845-3.174 18.875-15.35 15.702-27.195-3.175-11.846-15.35-18.875-27.196-15.702L3.707-46.971" style="stroke-width:15;stroke-linecap:round;stroke-linejoin:round;stroke-miterlimit:10;stroke-dasharray:none;stroke-opacity:1" transform="translate(274.044 250.217)" fill="none" stroke="#333333" stroke-width="15" stroke-linecap="round" stroke-linejoin="round" stroke-miterlimit="10" stroke-dasharray="none" stroke-opacity="" data-original="#000000" opacity="1"></path><path d="m0 0-40.284.005c-10.25 0-19.54 4.16-26.261 10.88-6.72 6.719-10.88 16-10.88 26.261a51.737 51.737 0 0 0 28.181 46.079 168.971 168.971 0 0 0 41.399 14.78c4.518.982 9.077 1.779 13.667 2.389" style="stroke-width:15;stroke-linecap:round;stroke-linejoin:round;stroke-miterlimit:10;stroke-dasharray:none;stroke-opacity:1" transform="translate(201.894 7.495)" fill="none" stroke="#333333" stroke-width="15" stroke-linecap="round" stroke-linejoin="round" stroke-miterlimit="10" stroke-dasharray="none" stroke-opacity="" data-original="#000000" opacity="1"></path><path d="M0 0c-5.342 18.454-22.365 31.946-42.54 31.946a76.832 76.832 0 0 1-58.871-27.46 93.097 93.097 0 0 1-21.768-59.827v-67.983h70.856" style="stroke-width:15;stroke-linecap:round;stroke-linejoin:round;stroke-miterlimit:10;stroke-dasharray:none;stroke-opacity:1" transform="translate(325.073 130.824)" fill="none" stroke="#333333" stroke-width="15" stroke-linecap="round" stroke-linejoin="round" stroke-miterlimit="10" stroke-dasharray="none" stroke-opacity="" data-original="#000000" opacity="1"></path><path d="M0 0v0c-15.419 27.803-45.708 45.821-77.499 45.821-25.79 0-46.697-20.907-46.697-46.697v-86.427h95.001" style="stroke-width:15;stroke-linecap:round;stroke-linejoin:round;stroke-miterlimit:10;stroke-dasharray:none;stroke-opacity:1" transform="translate(431.195 94.803)" fill="none" stroke="#333333" stroke-width="15" stroke-linecap="round" stroke-linejoin="round" stroke-miterlimit="10" stroke-dasharray="none" stroke-opacity="" data-original="#000000" opacity="1"></path><path d="M0 0h-5.446c-20.262 0-36.687-16.426-36.687-36.687v-51.386h70.479c15.187 0 27.499 12.311 27.499 27.499v4.728C55.845-25.003 30.842 0 0 0Z" style="stroke-width:15;stroke-linecap:round;stroke-linejoin:round;stroke-miterlimit:10;stroke-dasharray:none;stroke-opacity:1" transform="translate(444.133 95.573)" fill="none" stroke="#333333" stroke-width="15" stroke-linecap="round" stroke-linejoin="round" stroke-miterlimit="10" stroke-dasharray="none" stroke-opacity="" data-original="#000000" opacity="1"></path></g></g></svg>