<svg xmlns="http://www.w3.org/2000/svg" version="1.1" xmlns:xlink="http://www.w3.org/1999/xlink" xmlns:svgjs="http://svgjs.com/svgjs" width="512" height="512" x="0" y="0" viewBox="0 0 682.667 682.667" style="enable-background:new 0 0 512 512" xml:space="preserve" class=""><g><defs><clipPath id="a" clipPathUnits="userSpaceOnUse"><path d="M0 512h512V0H0Z" fill="#333333" data-original="#000000" opacity="1"></path></clipPath></defs><g clip-path="url(#a)" transform="matrix(1.33333 0 0 -1.33333 0 682.667)"><path d="M0 0c8.69-14.12 13.92-30.6 14.53-48.27.75-21.53 1.28-43.06 1.6-64.59" style="stroke-width:15;stroke-linecap:round;stroke-linejoin:round;stroke-miterlimit:10;stroke-dasharray:none;stroke-opacity:1" transform="translate(364.2 368.92)" fill="none" stroke="#333333" stroke-width="15" stroke-linecap="round" stroke-linejoin="round" stroke-miterlimit="10" stroke-dasharray="none" stroke-opacity="" data-original="#000000" opacity="1"></path><path d="M0 0a98.13 98.13 0 0 1-23.92 15.32" style="stroke-width:15;stroke-linecap:round;stroke-linejoin:round;stroke-miterlimit:10;stroke-dasharray:none;stroke-opacity:1" transform="translate(344.78 391.78)" fill="none" stroke="#333333" stroke-width="15" stroke-linecap="round" stroke-linejoin="round" stroke-miterlimit="10" stroke-dasharray="none" stroke-opacity="" data-original="#000000" opacity="1"></path><path d="M0 0c-.37 46.75.26 93.5 1.88 140.25 1.33 38.56 24.67 71.44 57.87 86.45" style="stroke-width:15;stroke-linecap:round;stroke-linejoin:round;stroke-miterlimit:10;stroke-dasharray:none;stroke-opacity:1" transform="translate(151.36 180.4)" fill="none" stroke="#333333" stroke-width="15" stroke-linecap="round" stroke-linejoin="round" stroke-miterlimit="10" stroke-dasharray="none" stroke-opacity="" data-original="#000000" opacity="1"></path><path d="M0 0c7.19-5.35 16.08-8.5 25.68-8.5h67.96" style="stroke-width:15;stroke-linecap:round;stroke-linejoin:round;stroke-miterlimit:10;stroke-dasharray:none;stroke-opacity:1" transform="translate(172.35 16.002)" fill="none" stroke="#333333" stroke-width="15" stroke-linecap="round" stroke-linejoin="round" stroke-miterlimit="10" stroke-dasharray="none" stroke-opacity="" data-original="#000000" opacity="1"></path><path d="M0 0h-111.887c-11.209 0-20.296-9.087-20.296-20.295 0-11.209 9.087-20.296 20.296-20.296H0c11.209 0 20.295 9.087 20.295 20.296C20.295-9.087 11.209 0 0 0Z" style="stroke-width:15;stroke-linecap:round;stroke-linejoin:round;stroke-miterlimit:10;stroke-dasharray:none;stroke-opacity:1" transform="translate(321.928 447.696)" fill="none" stroke="#333333" stroke-width="15" stroke-linecap="round" stroke-linejoin="round" stroke-miterlimit="10" stroke-dasharray="none" stroke-opacity="" data-original="#000000" opacity="1"></path><path d="M0 0h-64.261c-13.152 0-23.813-10.661-23.813-23.813V-56.8H23.813v32.987C23.813-10.661 13.152 0 0 0Z" style="stroke-width:15;stroke-linecap:round;stroke-linejoin:round;stroke-miterlimit:10;stroke-dasharray:none;stroke-opacity:1" transform="translate(298.115 504.496)" fill="none" stroke="#333333" stroke-width="15" stroke-linecap="round" stroke-linejoin="round" stroke-miterlimit="10" stroke-dasharray="none" stroke-opacity="" data-original="#000000" opacity="1"></path><path d="M0 0c28.96.711 57.921.354 86.882-1.07 9.427-.464 17.162-7.685 18.277-17.058a216.856 216.856 0 0 0 0-51.404c-1.115-9.374-8.852-16.594-18.281-17.058A1174.553 1174.553 0 0 0-1.9-87.61" style="stroke-width:15;stroke-linecap:round;stroke-linejoin:round;stroke-miterlimit:10;stroke-dasharray:none;stroke-opacity:1" transform="translate(153.27 321.27)" fill="none" stroke="#333333" stroke-width="15" stroke-linecap="round" stroke-linejoin="round" stroke-miterlimit="10" stroke-dasharray="none" stroke-opacity="" data-original="#000000" opacity="1"></path><path d="M0 0c54.11-20.56 116.7-12.11 163.819 25.36 8.67 6.89 11.28 18.94 6.31 28.84l-49.92 99.32a26.573 26.573 0 0 0-17.969-6.94c-14.77 0-26.75 11.98-26.75 26.76 0 12.999 9.28 23.829 21.57 26.249l-12.57 25.02c-10.27 20.42-39.42 20.42-49.69.01L-8.09 139.28" style="stroke-width:15;stroke-linecap:round;stroke-linejoin:round;stroke-miterlimit:10;stroke-dasharray:none;stroke-opacity:1" transform="translate(331.87 18.432)" fill="none" stroke="#333333" stroke-width="15" stroke-linecap="round" stroke-linejoin="round" stroke-miterlimit="10" stroke-dasharray="none" stroke-opacity="" data-original="#000000" opacity="1"></path><path d="M0 0c52.79-17.94 112.729-8.82 158.229 27.37 1.74 1.39 3.25 2.99 4.48 4.73" style="stroke-width:15;stroke-linecap:round;stroke-linejoin:round;stroke-miterlimit:10;stroke-dasharray:none;stroke-opacity:1" transform="translate(337.46 44.162)" fill="none" stroke="#333333" stroke-width="15" stroke-linecap="round" stroke-linejoin="round" stroke-miterlimit="10" stroke-dasharray="none" stroke-opacity="" data-original="#000000" opacity="1"></path><path d="M0 0c-2.604-14.063 6.686-27.575 20.749-30.179 14.063-2.604 27.575 6.686 30.179 20.749 2.604 14.063-6.686 27.575-20.749 30.179C16.116 23.353 2.604 14.063 0 0Z" style="stroke-width:15;stroke-linecap:round;stroke-linejoin:round;stroke-miterlimit:10;stroke-dasharray:none;stroke-opacity:1" transform="translate(400.558 102.242)" fill="none" stroke="#333333" stroke-width="15" stroke-linecap="round" stroke-linejoin="round" stroke-miterlimit="10" stroke-dasharray="none" stroke-opacity="" data-original="#000000" opacity="1"></path><path d="M0 0c1.694 9.149 10.484 15.193 19.634 13.499 9.149-1.694 15.193-10.485 13.499-19.634-1.695-9.149-10.485-15.193-19.634-13.499C4.35-17.94-1.694-9.149 0 0Z" style="stroke-width:15;stroke-linecap:round;stroke-linejoin:round;stroke-miterlimit:10;stroke-dasharray:none;stroke-opacity:1" transform="translate(354.87 150.601)" fill="none" stroke="#333333" stroke-width="15" stroke-linecap="round" stroke-linejoin="round" stroke-miterlimit="10" stroke-dasharray="none" stroke-opacity="" data-original="#000000" opacity="1"></path><path d="M0 0c5.389 39.769 35.683 91.702 72.232 91.702 36.558 0 66.843-51.933 72.231-91.702" style="stroke-width:15;stroke-linecap:round;stroke-linejoin:round;stroke-miterlimit:10;stroke-dasharray:none;stroke-opacity:1" transform="translate(193.747 113.408)" fill="none" stroke="#333333" stroke-width="15" stroke-linecap="round" stroke-linejoin="round" stroke-miterlimit="10" stroke-dasharray="none" stroke-opacity="" data-original="#000000" opacity="1"></path><path d="M0 0c12.55 16.66 28.56 28.45 45.97 28.45 36.55 0 66.84-51.93 72.23-91.7" style="stroke-width:15;stroke-linecap:round;stroke-linejoin:round;stroke-miterlimit:10;stroke-dasharray:none;stroke-opacity:1" transform="translate(62.36 176.66)" fill="none" stroke="#333333" stroke-width="15" stroke-linecap="round" stroke-linejoin="round" stroke-miterlimit="10" stroke-dasharray="none" stroke-opacity="" data-original="#000000" opacity="1"></path><path d="M0 0c-5.61-12.4-9.47-25.44-11.09-37.39" style="stroke-width:15;stroke-linecap:round;stroke-linejoin:round;stroke-miterlimit:10;stroke-dasharray:none;stroke-opacity:1" transform="translate(47.19 150.8)" fill="none" stroke="#333333" stroke-width="15" stroke-linecap="round" stroke-linejoin="round" stroke-miterlimit="10" stroke-dasharray="none" stroke-opacity="" data-original="#000000" opacity="1"></path><path d="M0 0c1.61-21.55 7.02-43.1 10.12-64.64 1.07-7.42 6.97-13.2 14.42-14.05 38.8-4.41 68.76-4.41 107.56-.01 7.46.85 13.43 6.61 14.5 14.05.7 4.91 1.53 10.76 2.4 17.01 1.33 9.49 15.04 9.49 16.37 0 .87-6.25 1.7-12.1 2.4-17.01 1.07-7.44 7.03-13.2 14.5-14.05 38.8-4.4 68.75-4.4 107.56.01 7.45.85 13.35 6.63 14.42 14.04 3.11 21.55 8.51 43.1 10.12 64.65" style="stroke-width:15;stroke-linecap:round;stroke-linejoin:round;stroke-miterlimit:10;stroke-dasharray:none;stroke-opacity:1" transform="translate(29.97 89.5)" fill="none" stroke="#333333" stroke-width="15" stroke-linecap="round" stroke-linejoin="round" stroke-miterlimit="10" stroke-dasharray="none" stroke-opacity="" data-original="#000000" opacity="1"></path><path d="M0 0h-335.399c-6.604 0-11.957 5.353-11.957 11.957 0 6.603 5.353 11.956 11.957 11.956H0c6.603 0 11.957-5.353 11.957-11.956C11.957 5.353 6.603 0 0 0Z" style="stroke-width:15;stroke-linecap:round;stroke-linejoin:round;stroke-miterlimit:10;stroke-dasharray:none;stroke-opacity:1" transform="translate(354.857 89.5)" fill="none" stroke="#333333" stroke-width="15" stroke-linecap="round" stroke-linejoin="round" stroke-miterlimit="10" stroke-dasharray="none" stroke-opacity="" data-original="#000000" opacity="1"></path></g></g></svg>